<?xml version="1.0" encoding="UTF-8" standalone="no"?>
<!-- Creator: CorelDRAW -->

<svg
   xmlns:dc="http://purl.org/dc/elements/1.1/"
   xmlns:cc="http://creativecommons.org/ns#"
   xmlns:rdf="http://www.w3.org/1999/02/22-rdf-syntax-ns#"
   xmlns:svg="http://www.w3.org/2000/svg"
   xmlns="http://www.w3.org/2000/svg"
   xmlns:sodipodi="http://sodipodi.sourceforge.net/DTD/sodipodi-0.dtd"
   xmlns:inkscape="http://www.inkscape.org/namespaces/inkscape"
   xml:space="preserve"
   width="300"
   height="210"
   style="fill-rule:evenodd"
   viewBox="0 0 299.9265 193.43878"
   id="svg3003"
   version="1.1"
   inkscape:version="0.48.4 r9939"
   sodipodi:docname="logo.svg"><metadata
   id="metadata3019"><rdf:RDF><cc:Work
       rdf:about=""><dc:format>image/svg+xml</dc:format><dc:type
         rdf:resource="http://purl.org/dc/dcmitype/StillImage" /></cc:Work></rdf:RDF></metadata><sodipodi:namedview
   pagecolor="#ffffff"
   bordercolor="#666666"
   borderopacity="1"
   objecttolerance="10"
   gridtolerance="10"
   guidetolerance="10"
   inkscape:pageopacity="0"
   inkscape:pageshadow="2"
   inkscape:window-width="1920"
   inkscape:window-height="1138"
   id="namedview3017"
   showgrid="false"
   inkscape:zoom="3.5965876"
   inkscape:cx="120.19628"
   inkscape:cy="99.456959"
   inkscape:window-x="-8"
   inkscape:window-y="-8"
   inkscape:window-maximized="1"
   inkscape:current-layer="svg3003" />
 <defs
   id="defs3005">
  <style
   type="text/css"
   id="style3007">
   
    .fil2 {fill:#00AAEA}
    .fil0 {fill:#BEBEBE}
    .fil1 {fill:#FF6E00}
    .fil3 {fill:white}
    .fil4 {fill:white;fill-rule:nonzero}
   
  </style>
 
  
  
  
  
  
  
  
 </defs>
 <g
   id="g3027"
   transform="matrix(1.4563703,0,0,1.4563703,4.4691559,1.670605)"><path
     id="Sling"
     class="fil0"
     d="m 144.134,1.88838 c 3.99647,-0.601635 7.79251,-1.01355 11.4731,-1.28737 12.6653,-0.942138 23.7647,0.218957 31.3819,3.87405 6.61475,3.16182 10.3039,8.03635 10.8695,14.1817 -2.2361,-1.84198 -5.10071,-2.94833 -8.22334,-2.94833 -2.18472,0 -4.24267,0.542292 -6.04795,1.49849 -1.63347,-2.81708 -4.23968,-5.22375 -7.78206,-7.11499 -6.32289,-3.36249 -15.2158,-4.83149 -25.1241,-4.60358 -2.08482,-1.34945 -4.27178,-2.55421 -6.54707,-3.59998 z m 45.0791,39.6999 c -4.69215,6.39815 -11.3919,13.4038 -20.3726,20.8049 -24.6146,20.361 -59.7144,38.4513 -94.8341,47.6936 -5.57346,1.46676 -10.9424,2.66319 -16.0647,3.58679 5.04796,-6.04857 8.08699,-13.8316 8.08699,-22.3239 0,-2.37793 -0.238987,-4.70012 -0.692825,-6.94443 8.78342,2.53704 20.5875,2.65 34.0376,0.386037 22.621795,-3.80799 46.175195,-13.8097 63.623395,-27.1355 8.62057,-6.60318 14.6038,-13.1356 18.2425,-19.1538 2.16083,1.84359 4.935,2.98877 7.97377,3.0863 z m -162.874,15.2285 c 4.83584,-4.23943 10.1835,-8.40833 15.8743,-12.4131 10.3284,-7.26851 22.3231,-14.1635 34.4069,-20.098 -1.60859,2.94 -2.94149,6.05193 -3.96574,9.30095 -1.96663,1.46229 -3.83337,2.95244 -5.57682,4.46038 -8.88357,7.68341 -15.251,16.0581 -17.2032,23.8609 -5.407,-3.44659 -11.8269,-5.44469 -18.7129,-5.44469 -1.63658,0 -3.24592,0.11545 -4.82253,0.333661 z"
     inkscape:connector-curvature="0"
     style="fill:#bebebe" /><path
     id="ball0"
     class="fil1"
     d="m 122.393,0 c 26.0789,0 47.4311,20.2646 49.1737,45.9021 -3.26271,3.43365 -6.89976,6.55615 -10.4609,9.28391 -17.4871,13.3555 -40.5894,22.8922 -62.2492,26.5382 -4.03255,0.678767 -8.15616,1.1866 -12.2831,1.4231 C 78.22339,74.31674 73.1013,62.40141 73.1013,49.29171 73.1013,22.07331 95.1748,1e-5 122.393,1e-5 z m 46.1437,66.6501 c -7.02367,18.656 -25.0349,31.9337 -46.1437,31.9334 -2.0582,0 -4.08641,-0.128264 -6.07855,-0.373471 18.4811,-8.38295 36.6125,-19.0396 52.2223,-31.5599 z"
     inkscape:connector-curvature="0"
     style="fill:#f57a0b;fill-opacity:1" /><circle
     id="ball2"
     class="fil2"
     cx="189.63499"
     cy="28.652201"
     r="10.3164"
     sodipodi:cx="189.63499"
     sodipodi:cy="28.652201"
     sodipodi:rx="10.3164"
     sodipodi:ry="10.3164"
     style="fill:#00aaea"
     d="m 199.95139,28.652201 c 0,5.69759 -4.61881,10.316399 -10.3164,10.316399 -5.69759,0 -10.3164,-4.618809 -10.3164,-10.316399 0,-5.69759 4.61881,-10.3164 10.3164,-10.3164 5.69759,0 10.3164,4.61881 10.3164,10.3164 z" /><circle
     id="ball1"
     class="fil2"
     cx="31.1616"
     cy="91.349701"
     r="31.161501"
     sodipodi:cx="31.1616"
     sodipodi:cy="91.349701"
     sodipodi:rx="31.161501"
     sodipodi:ry="31.161501"
     style="fill:#00aaea"
     d="M 62.323101,91.349701 C 62.323101,108.55972 48.371622,122.5112 31.1616,122.5112 13.951578,122.5112 9.9182129e-5,108.55972 9.9182129e-5,91.349701 9.9182129e-5,74.139679 13.951578,60.1882 31.1616,60.1882 c 17.210022,0 31.161501,13.951479 31.161501,31.161501 z" /><path
     id="TF"
     class="fil3"
     d="m 11.8956,73.5655 11.1519,0 6.66899,0 20.7112,0 0,6.66911 -20.7112,0 0,31.8631 -6.66899,0 0,-31.8631 -11.1519,0 0,-6.66911 z m 28.195,18.9782 10.3371,0 0,6.66911 -10.3371,0 0,12.8849 -6.66911,0 0,-27.9929 6.66911,0 0,8.43893 z"
     inkscape:connector-curvature="0"
     style="fill:#ffffff" /><path
     id="ORBIT"
     class="fil4"
     d="m 96.6456,49.7949 c 0,-0.801184 -0.0163,-1.45109 -0.04902,-1.94984 -0.03272,-0.498625 -0.07352,-0.899217 -0.122666,-1.20165 -0.04902,-0.302559 -0.114455,-0.535574 -0.196191,-0.699046 -0.08173,-0.163471 -0.171682,-0.310646 -0.269715,-0.441398 -0.163471,-0.212612 -0.392381,-0.392381 -0.686729,-0.539555 -0.294348,-0.147174 -0.637713,-0.220823 -1.03009,-0.220823 -0.392381,0 -0.735746,0.07365 -1.03009,0.220823 -0.294224,0.147174 -0.523134,0.326943 -0.686605,0.539555 -0.09816,0.130752 -0.188104,0.277926 -0.26984,0.441398 -0.08174,0.163471 -0.147174,0.396487 -0.196191,0.699046 -0.04902,0.302435 -0.08995,0.703027 -0.122666,1.20165 -0.03272,0.49875 -0.04902,1.14865 -0.04902,1.94984 0,0.801184 0.0163,1.44698 0.04902,1.93752 0.03272,0.490539 0.07365,0.887026 0.122666,1.18946 0.04902,0.302435 0.114455,0.53545 0.196191,0.698921 0.08174,0.163596 0.171682,0.310646 0.26984,0.441522 0.163471,0.212488 0.392381,0.396487 0.686605,0.551747 0.294348,0.155385 0.637713,0.233015 1.03009,0.233015 0.392381,0 0.735746,-0.07763 1.03009,-0.233015 0.294348,-0.155261 0.523258,-0.339259 0.686729,-0.551747 0.09803,-0.130877 0.18798,-0.277926 0.269715,-0.441522 0.08174,-0.163471 0.147174,-0.396487 0.196191,-0.698921 0.04914,-0.302435 0.08995,-0.698921 0.122666,-1.18946 0.03272,-0.490539 0.04902,-1.13634 0.04902,-1.93752 z m 4.29206,0 c 0,0.65401 -0.004,1.2957 -0.0123,1.92521 -0.008,0.629502 -0.0654,1.2386 -0.17168,1.82717 -0.10624,0.588572 -0.28203,1.14865 -0.52724,1.68 -0.245329,0.531344 -0.59678,1.02599 -1.054597,1.48381 -0.637713,0.637588 -1.34074,1.12402 -2.1092,1.45918 -0.768465,0.335278 -1.69232,0.502855 -2.77143,0.502855 -1.07911,0 -2.00284,-0.167577 -2.7713,-0.502855 -0.768465,-0.335154 -1.47162,-0.821587 -2.1092,-1.45918 -0.45782,-0.45782 -0.809395,-0.952464 -1.0546,-1.48381 -0.245332,-0.531344 -0.420995,-1.09143 -0.527363,-1.68 -0.106244,-0.588572 -0.163471,-1.19767 -0.171682,-1.82717 -0.0081,-0.629502 -0.01219,-1.2712 -0.01219,-1.92521 0,-0.65401 0.0041,-1.29583 0.01219,-1.92521 0.0082,-0.629502 0.06544,-1.2386 0.171682,-1.82717 0.106368,-0.588696 0.282032,-1.14865 0.527363,-1.68 0.245207,-0.531469 0.596783,-1.02599 1.0546,-1.48381 0.637588,-0.637713 1.34074,-1.12415 2.1092,-1.4593 0.768465,-0.335154 1.69219,-0.502731 2.7713,-0.502731 1.07911,0 2.00296,0.167577 2.77143,0.502731 0.768465,0.335154 1.47149,0.821587 2.1092,1.4593 0.45782,0.45782 0.809271,0.952339 1.054597,1.48381 0.24521,0.531344 0.421,1.0913 0.52724,1.68 0.10625,0.588572 0.16347,1.19767 0.17168,1.82717 0.008,0.629378 0.0123,1.2712 0.0123,1.92521 z m 11.5514,-3.11479 c 0,-0.45782 -0.16347,-0.866498 -0.49054,-1.22628 -0.32694,-0.359662 -0.78476,-0.539555 -1.37333,-0.539555 l -2.42806,0 0,3.53168 2.42806,0 c 0.58857,0 1.04639,-0.179769 1.37333,-0.539555 0.32707,-0.359662 0.49054,-0.768465 0.49054,-1.22628 z m 0.24533,11.8458 -3.09028,-6.4993 -1.44698,0 0,6.4993 -4.29193,0 0,-17.4621 6.91619,0 c 0.96466,0 1.81896,0.159366 2.56292,0.478222 0.74396,0.318856 1.36525,0.739851 1.86387,1.26311 0.49875,0.523134 0.87882,1.11992 1.14044,1.79035 0.26163,0.670308 0.39238,1.36525 0.39238,2.08457 0,0.588696 -0.0858,1.12825 -0.25752,1.61867 -0.17168,0.490539 -0.39238,0.92385 -0.6621,1.29993 -0.26984,0.376084 -0.57227,0.703027 -0.90743,0.980953 -0.33527,0.278051 -0.67453,0.49875 -1.0179,0.662221 l 3.77701,7.28406 -4.97866,0 z m 15.6717,-12.1892 c 0,-0.343365 -0.11035,-0.666202 -0.33117,-0.968761 -0.2207,-0.302435 -0.6254,-0.453714 -1.21397,-0.453714 l -2.67327,0 0,2.84495 2.67327,0 c 0.58857,0 0.99327,-0.151155 1.21397,-0.453714 0.22082,-0.302435 0.33117,-0.625397 0.33117,-0.968761 z m 0.24521,6.79365 c 0,-0.376084 -0.11446,-0.723554 -0.34337,-1.04241 -0.22891,-0.318856 -0.63758,-0.478222 -1.22628,-0.478222 l -2.89397,0 0,3.06565 2.89397,0 c 0.5887,0 0.99738,-0.163471 1.22628,-0.490414 0.22891,-0.327067 0.34337,-0.678643 0.34337,-1.0546 z m 4.29193,0.245207 c 0,0.833904 -0.13896,1.56965 -0.41689,2.20724 -0.27793,0.637713 -0.65812,1.17727 -1.14044,1.61879 -0.48233,0.441398 -1.0546,0.772446 -1.71682,0.99327 -0.6621,0.220699 -1.38565,0.331048 -2.17041,0.331048 l -7.60292,0 0,-17.4621 7.23504,0 c 0.89922,0 1.6963,0.122541 2.39124,0.367873 0.69481,0.245207 1.27941,0.588572 1.75352,1.03009 0.47412,0.441398 0.8298,0.972742 1.06679,1.59416 0.23712,0.621291 0.35568,1.30802 0.35568,2.06006 0,0.490539 -0.0735,0.931937 -0.2207,1.32444 -0.14717,0.392381 -0.32296,0.731641 -0.52736,1.01778 -0.2044,0.286137 -0.41689,0.519153 -0.63759,0.698921 -0.22082,0.179893 -0.39649,0.318856 -0.52736,0.417014 0.17989,0.114455 0.39238,0.261505 0.63771,0.441398 0.24521,0.179893 0.48233,0.41689 0.71124,0.711238 0.22891,0.294348 0.42099,0.658116 0.57638,1.09143 0.15526,0.433311 0.23289,0.952339 0.23289,1.55733 z m 2.96762,5.15035 0,-17.4621 4.29193,0 0,17.4621 -4.29193,0 z m 15.3774,-13.6362 0,13.6362 -4.29193,0 0,-13.6362 -4.29193,0 0,-3.8259 12.8759,0 0,3.8259 -4.29206,0 z"
     inkscape:connector-curvature="0"
     style="fill:#ffffff;fill-rule:nonzero" /></g>
</svg>